<svg width="301" height="600" viewBox="0 0 301 600" fill="none" xmlns="http://www.w3.org/2000/svg">
<path d="M269.302 0H30.6977C13.7438 0 0 12.6821 0 28.3262V571.674C0 587.318 13.7438 600 30.6977 600H269.302C286.256 600 300 587.318 300 571.674V28.3262C300 12.6821 286.256 0 269.302 0Z" fill="#232323"/>
<path d="M268.605 3.21887H31.3954C15.9828 3.21887 3.4884 14.748 3.4884 28.9699V566.524C3.4884 580.746 15.9828 592.275 31.3954 592.275H268.605C284.017 592.275 296.512 580.746 296.512 566.524V28.9699C296.512 14.748 284.017 3.21887 268.605 3.21887Z" fill="#171717"/>
<path d="M213.488 10.9442H86.5116C83.0438 10.9442 80.2325 13.5383 80.2325 16.7382C80.2325 19.9381 83.0438 22.5322 86.5116 22.5322H213.488C216.956 22.5322 219.767 19.9381 219.767 16.7382C219.767 13.5383 216.956 10.9442 213.488 10.9442Z" fill="#232323"/>
<path d="M52.0046 272.991C53.0337 271.586 54.444 270.444 56.2355 269.566C58.0651 268.687 60.1424 268.248 62.4676 268.248C65.1739 268.248 67.6133 268.863 69.786 270.092C71.997 271.322 73.7314 273.079 74.9893 275.363C76.2849 277.611 76.933 280.229 76.933 283.215C76.933 286.202 76.2849 288.855 74.9893 291.174C73.7314 293.457 71.997 295.231 69.786 296.496C67.6133 297.761 65.1739 298.394 62.4676 298.394C60.1043 298.394 58.027 297.972 56.2355 297.129C54.4821 296.25 53.0718 295.126 52.0046 293.756V297.919H44V258.92H52.0046V272.991ZM68.7568 283.215C68.7568 281.459 68.3567 279.948 67.5562 278.683C66.7939 277.383 65.7647 276.4 64.4687 275.732C63.2178 275.066 61.7966 274.72 60.3521 274.73C58.9037 274.73 57.5315 275.082 56.2355 275.784C54.9776 276.452 53.9485 277.436 53.148 278.736C52.3857 280.036 52.0046 281.564 52.0046 283.321C52.0046 285.078 52.3857 286.606 53.148 287.906C53.9485 289.206 54.9776 290.207 56.2355 290.91C57.5315 291.577 58.9037 291.911 60.3521 291.911C61.8387 291.911 63.2109 291.56 64.4687 290.857C65.7647 290.154 66.7939 289.153 67.5562 287.853C68.3567 286.553 68.7568 285.007 68.7568 283.215ZM86.8086 265.244C85.3979 265.244 84.2167 264.84 83.2637 264.032C82.3484 263.189 81.8914 262.152 81.8914 260.923C81.8914 259.693 82.3484 258.674 83.2637 257.866C84.2167 257.023 85.3979 256.601 86.8086 256.601C88.2186 256.601 89.3809 257.023 90.2963 257.866C91.2493 258.674 91.7251 259.693 91.7251 260.923C91.7251 262.152 91.2493 263.189 90.2963 264.032C89.3809 264.84 88.2186 265.244 86.8086 265.244ZM90.7533 268.723V297.919H82.7488V268.723H90.7533ZM117.416 297.919L106.667 285.481V297.919H98.6628V258.92H106.667V281.107L117.302 268.723H127.708L113.757 283.374L127.822 297.919H117.416ZM128.405 283.321C128.405 280.3 129.072 277.664 130.406 275.415C131.74 273.132 133.589 271.375 135.952 270.145C138.315 268.88 141.021 268.248 144.071 268.248C147.997 268.248 151.237 269.162 153.791 270.989C156.383 272.78 158.117 275.31 158.993 278.577H150.362C149.904 277.313 149.123 276.329 148.018 275.626C146.95 274.889 145.616 274.52 144.015 274.52C141.728 274.52 139.918 275.292 138.584 276.839C137.25 278.35 136.583 280.51 136.583 283.321C136.583 286.097 137.25 288.257 138.584 289.803C139.918 291.314 141.728 292.069 144.015 292.069C147.255 292.069 149.37 290.735 150.362 288.064H158.995C158.119 291.226 156.384 293.738 153.792 295.6C151.2 297.463 147.96 298.394 144.072 298.394C141.023 298.394 138.317 297.779 135.953 296.549C133.609 295.302 131.689 293.477 130.408 291.279C129.074 288.995 128.405 286.343 128.405 283.321ZM171.275 273.255C172.257 271.752 173.633 270.501 175.277 269.618C176.954 268.74 178.86 268.301 180.995 268.301V276.048H178.879C176.363 276.048 174.458 276.593 173.162 277.682C171.904 278.771 171.275 280.668 171.275 283.374V297.919H163.271V268.723H171.275V273.255ZM205.539 293.756C204.663 295.091 203.233 296.215 201.251 297.129C199.269 298.007 197.134 298.446 194.847 298.446C192.865 298.446 191.074 298.077 189.473 297.34C187.872 296.602 186.614 295.583 185.699 294.283C184.784 292.983 184.327 291.49 184.327 289.803C184.327 287.098 185.413 284.885 187.586 283.162C189.797 281.441 193.094 280.58 197.477 280.58H205.539C205.463 278.718 204.872 277.242 203.767 276.154C202.699 275.029 201.213 274.467 199.307 274.467C197.63 274.467 196.239 274.889 195.133 275.732C194.028 276.54 193.323 277.682 193.018 279.157H185.013C185.394 277.049 186.214 275.169 187.472 273.518C188.756 271.84 190.489 270.497 192.503 269.618C194.599 268.67 196.943 268.195 199.535 268.195C202.204 268.195 204.605 268.704 206.74 269.724C208.86 270.697 210.628 272.216 211.828 274.098C213.048 275.995 213.658 278.227 213.658 280.791V297.919H205.539V293.756ZM197.191 292.491C198.526 292.491 199.821 292.227 201.079 291.7C202.376 291.174 203.442 290.383 204.281 289.329C205.12 288.275 205.539 287.028 205.539 285.587V285.376H197.935C196.105 285.376 194.733 285.71 193.818 286.377C192.942 287.045 192.503 287.923 192.503 289.012C192.503 290.067 192.903 290.91 193.703 291.542C194.542 292.175 195.705 292.491 197.191 292.491ZM230.539 274.783V297.919H222.42V274.783H218.818V268.723H222.42V267.247C222.42 263.663 223.526 261.028 225.737 259.341C227.947 257.655 231.282 256.864 235.742 256.97V263.189C233.798 263.153 232.445 263.452 231.682 264.085C230.92 264.717 230.539 265.859 230.539 267.51V268.723H240.942V261.502H249.003V268.723H256.093V274.783H249.003V288.907C249.003 289.891 249.251 290.612 249.746 291.068C250.28 291.49 251.157 291.7 252.377 291.7H256.093V297.919H251.061C244.315 297.919 240.942 294.898 240.942 288.855V274.783H230.539Z" fill="white"/>
<path d="M61.6742 241.15H60.9116L59.33 237.133C59.1991 236.802 58.9613 236.516 58.6487 236.313C58.3361 236.111 57.9637 236.001 57.5816 236H56.0928C55.5814 236 55.1628 236.386 55.1628 236.859C55.1628 237.331 55.5814 237.717 56.0928 237.717H57.5816L58.9393 241.15H54.4651L54.1302 240.292H54.214C54.7253 240.292 55.144 239.906 55.144 239.434C55.144 238.961 54.7253 238.575 54.214 238.575H51.4421C50.93 238.575 50.5114 238.961 50.5114 239.434C50.5114 239.906 50.93 240.292 51.4421 240.292H52.1398L53.8323 244.584H53.2093C52.7998 242.67 51.0605 241.253 48.8837 241.159C46.2793 241.039 44 243.039 44 245.442C44 247.845 46.0463 249.734 48.6514 249.734C50.9398 249.734 52.7907 248.283 53.2093 246.3H57.1163C57.5258 248.215 59.2651 249.631 61.4419 249.725C64.0463 249.837 66.3256 247.845 66.3256 245.434C66.3256 243.039 64.2793 241.15 61.6742 241.15ZM49.5814 246.3H51.2747C50.884 247.356 49.7858 248.086 48.4651 248.009C47.0788 247.932 45.9256 246.85 45.8607 245.563C45.7951 244.06 47.0419 242.867 48.6514 242.867C49.2289 242.862 49.7933 243.026 50.2643 243.334C50.7353 243.642 51.0889 244.079 51.2747 244.584H49.5814C49.07 244.584 48.6514 244.97 48.6514 245.442C48.6514 245.914 49.07 246.3 49.5814 246.3ZM57.1163 244.584H55.8137L55.1349 242.867H57.9535C57.5326 243.371 57.2458 243.959 57.1163 244.584ZM61.5626 248.017C60.1302 247.966 58.9212 246.841 58.8835 245.511C58.8653 244.687 59.2463 243.966 59.8602 243.485L60.4372 244.945C60.4785 245.051 60.5421 245.148 60.6245 245.232C60.7067 245.315 60.8061 245.382 60.9167 245.431C61.0274 245.478 61.1472 245.505 61.2693 245.511C61.3913 245.516 61.5133 245.498 61.6281 245.46C61.7432 245.422 61.8489 245.363 61.9392 245.287C62.0296 245.211 62.1028 245.119 62.1547 245.017C62.2065 244.915 62.236 244.804 62.2415 244.692C62.2468 244.579 62.2281 244.467 62.1863 244.361L61.6002 242.876L61.6093 242.867C61.9823 242.856 62.3539 242.914 62.7019 243.038C63.0498 243.163 63.3668 243.351 63.6337 243.591C63.9006 243.832 64.1119 244.12 64.2547 244.438C64.3976 244.757 64.4691 245.098 64.4649 245.442C64.4649 246.918 63.1812 248.069 61.5626 248.017ZM54.2328 252.309H50.5114L56.0928 254.885V253.168H59.8142L54.2328 250.592V252.309Z" fill="url(#paint0_linear_272_371)"/>
<path d="M301 216C301 216.552 300.552 217 300 217V217L300 97V97C300.552 97 301 97.4477 301 98L301 216Z" fill="#232323"/>
<path d="M301 299C301 299.552 300.552 300 300 300V300L300 240V240C300.552 240 301 240.448 301 241L301 299Z" fill="#232323"/>
<defs>
<linearGradient id="paint0_linear_272_371" x1="55.1628" y1="236" x2="55.1628" y2="254.885" gradientUnits="userSpaceOnUse">
<stop stop-color="#FFBF00"/>
<stop offset="1" stop-color="#F2A50C"/>
</linearGradient>
</defs>
</svg>
