<svg width="430" height="932" viewBox="0 0 430 932" fill="none" xmlns="http://www.w3.org/2000/svg">
<rect width="430" height="932" rx="44" fill="#232323"/>
<rect x="5" y="5" width="420" height="915" rx="40" fill="#2B2B2B"/>
<rect x="115" y="17" width="200" height="18" rx="9" fill="#232323"/>
<path d="M74.4732 423.46C75.9483 421.277 77.9697 419.503 80.5375 418.139C83.16 416.774 86.1375 416.092 89.4702 416.092C93.3492 416.092 96.8458 417.047 99.96 418.957C103.129 420.867 105.615 423.596 107.418 427.144C109.275 430.636 110.204 434.702 110.204 439.341C110.204 443.98 109.275 448.101 107.418 451.703C105.615 455.25 103.129 458.006 99.96 459.971C96.8458 461.936 93.3492 462.918 89.4702 462.918C86.0829 462.918 83.1053 462.263 80.5375 460.953C78.0244 459.589 76.0029 457.843 74.4732 455.714V462.181H63V401.602H74.4732V423.46ZM98.4848 439.341C98.4848 436.613 97.9112 434.266 96.7639 432.301C95.6712 430.282 94.1961 428.754 92.3385 427.717C90.5455 426.682 88.5085 426.145 86.438 426.161C84.3619 426.161 82.3951 426.707 80.5375 427.798C78.7346 428.835 77.2595 430.364 76.1122 432.383C75.0195 434.402 74.4732 436.776 74.4732 439.505C74.4732 442.234 75.0195 444.608 76.1122 446.627C77.2595 448.647 78.7346 450.202 80.5375 451.293C82.3951 452.33 84.3619 452.849 86.438 452.849C88.5688 452.849 90.5356 452.303 92.3385 451.212C94.1961 450.12 95.6712 448.565 96.7639 446.545C97.9112 444.526 98.4848 442.125 98.4848 439.341ZM124.359 411.426C122.337 411.426 120.644 410.798 119.278 409.543C117.966 408.233 117.311 406.623 117.311 404.713C117.311 402.803 117.966 401.22 119.278 399.965C120.644 398.655 122.337 398 124.359 398C126.38 398 128.046 398.655 129.358 399.965C130.724 401.22 131.406 402.803 131.406 404.713C131.406 406.623 130.724 408.233 129.358 409.543C128.046 410.798 126.38 411.426 124.359 411.426ZM130.013 416.829V462.181H118.54V416.829H130.013ZM168.23 462.181L152.823 442.861V462.181H141.35V401.602H152.823V436.067L168.066 416.829H182.981L162.985 439.587L183.145 462.181H168.23ZM183.98 439.505C183.98 434.812 184.936 430.718 186.849 427.225C188.761 423.678 191.411 420.949 194.798 419.039C198.185 417.074 202.064 416.092 206.435 416.092C212.062 416.092 216.706 417.511 220.367 420.349C224.082 423.132 226.568 427.062 227.824 432.137H215.452C214.796 430.173 213.676 428.644 212.092 427.553C210.562 426.407 208.65 425.834 206.355 425.834C203.077 425.834 200.482 427.034 198.57 429.436C196.658 431.783 195.702 435.139 195.702 439.505C195.702 443.817 196.658 447.173 198.57 449.574C200.482 451.921 203.077 453.094 206.355 453.094C210.999 453.094 214.031 451.021 215.452 446.873H227.826C226.57 451.785 224.084 455.687 220.369 458.579C216.654 461.472 212.01 462.918 206.437 462.918C202.067 462.918 198.187 461.963 194.8 460.053C191.44 458.116 188.687 455.281 186.851 451.866C184.939 448.319 183.98 444.199 183.98 439.505ZM245.428 423.869C246.835 421.535 248.808 419.592 251.164 418.22C253.568 416.856 256.3 416.174 259.359 416.174V428.208H256.327C252.721 428.208 249.99 429.054 248.132 430.746C246.329 432.437 245.428 435.385 245.428 439.587V462.181H233.955V416.829H245.428V423.869ZM294.539 455.714C293.283 457.788 291.234 459.534 288.393 460.953C285.552 462.318 282.492 463 279.214 463C276.373 463 273.806 462.427 271.511 461.281C269.216 460.135 267.413 458.552 266.102 456.533C264.791 454.513 264.135 452.194 264.135 449.574C264.135 445.372 265.692 441.934 268.807 439.259C271.975 436.585 276.701 435.248 282.984 435.248H294.539C294.43 432.356 293.583 430.063 291.999 428.372C290.469 426.625 288.338 425.752 285.607 425.752C283.203 425.752 281.209 426.407 279.624 427.717C278.04 428.972 277.029 430.746 276.592 433.038H265.119C265.665 429.763 266.84 426.843 268.643 424.278C270.484 421.672 272.968 419.585 275.854 418.22C278.859 416.747 282.219 416.01 285.934 416.01C289.759 416.01 293.201 416.801 296.26 418.384C299.299 419.896 301.833 422.256 303.554 425.179C305.302 428.126 306.176 431.592 306.176 435.576V462.181H294.539V455.714ZM282.574 453.749C284.487 453.749 286.344 453.34 288.147 452.521C290.005 451.703 291.534 450.475 292.736 448.838C293.938 447.2 294.539 445.263 294.539 443.025V442.698H283.64C281.017 442.698 279.051 443.216 277.739 444.253C276.483 445.29 275.854 446.654 275.854 448.346C275.854 449.984 276.428 451.293 277.575 452.276C278.777 453.258 280.444 453.749 282.574 453.749ZM330.372 426.243V462.181H318.735V426.243H313.572V416.829H318.735V414.537C318.735 408.97 320.32 404.877 323.489 402.257C326.657 399.637 331.438 398.409 337.83 398.573V408.233C335.044 408.178 333.104 408.642 332.011 409.625C330.919 410.607 330.372 412.381 330.372 414.946V416.829H345.283V405.613H356.838V416.829H367V426.243H356.838V448.183C356.838 449.711 357.193 450.83 357.903 451.539C358.668 452.194 359.925 452.521 361.673 452.521H367V462.181H359.788C350.118 462.181 345.283 457.488 345.283 448.101V426.243H330.372Z" fill="white"/>
<path d="M88.333 374H87.24L84.973 367.76C84.7854 367.246 84.4446 366.801 83.9965 366.486C83.5484 366.172 83.0146 366.002 82.467 366H80.333C79.6 366 79 366.6 79 367.334C79 368.067 79.6 368.667 80.333 368.667H82.467L84.413 374H78L77.52 372.667H77.64C78.373 372.667 78.973 372.067 78.973 371.334C78.973 370.6 78.373 370 77.64 370H73.667C72.933 370 72.333 370.6 72.333 371.334C72.333 372.067 72.933 372.667 73.667 372.667H74.667L77.093 379.334H76.2C75.613 376.36 73.12 374.16 70 374.014C66.267 373.827 63 376.934 63 380.667C63 384.4 65.933 387.334 69.667 387.334C72.947 387.334 75.6 385.08 76.2 382H81.8C82.387 384.974 84.88 387.174 88 387.32C91.733 387.494 95 384.4 95 380.654C95 376.934 92.067 374 88.333 374ZM71 382H73.427C72.867 383.64 71.293 384.774 69.4 384.654C67.413 384.534 65.76 382.854 65.667 380.854C65.573 378.52 67.36 376.667 69.667 376.667C70.4947 376.659 71.3037 376.913 71.9788 377.392C72.654 377.871 73.1607 378.55 73.427 379.334H71C70.267 379.334 69.667 379.934 69.667 380.667C69.667 381.4 70.267 382 71 382ZM81.8 379.334H79.933L78.96 376.667H83C82.3967 377.45 81.9857 378.363 81.8 379.334ZM88.173 384.667C86.12 384.587 84.387 382.84 84.333 380.774C84.307 379.494 84.853 378.374 85.733 377.627L86.56 379.894C86.6192 380.059 86.7104 380.21 86.8284 380.34C86.9463 380.469 87.0887 380.574 87.2473 380.649C87.4059 380.723 87.5776 380.765 87.7526 380.773C87.9276 380.781 88.1024 380.754 88.267 380.694C88.4319 380.635 88.5834 380.544 88.7129 380.426C88.8424 380.308 88.9473 380.165 89.0217 380.007C89.096 379.848 89.1383 379.676 89.1461 379.501C89.1538 379.326 89.127 379.152 89.067 378.987L88.227 376.68L88.24 376.667C88.7746 376.649 89.3073 376.739 89.806 376.932C90.3047 377.126 90.7591 377.418 91.1416 377.792C91.5242 378.166 91.827 378.613 92.0317 379.107C92.2365 379.602 92.339 380.132 92.333 380.667C92.333 382.96 90.493 384.747 88.173 384.667ZM77.667 391.334H72.333L80.333 395.334V392.667H85.667L77.667 388.667V391.334Z" fill="url(#paint0_linear_265_74)"/>
<defs>
<linearGradient id="paint0_linear_265_74" x1="79" y1="366" x2="79" y2="395.334" gradientUnits="userSpaceOnUse">
<stop stop-color="#FFBF00"/>
<stop offset="1" stop-color="#F2A50C"/>
</linearGradient>
</defs>
</svg>
