<svg width="301" height="600" viewBox="0 0 301 600" fill="none" xmlns="http://www.w3.org/2000/svg">
<g clip-path="url(#clip0_272_370)">
<path d="M269.302 0H30.6977C13.7438 0 0 12.6821 0 28.3262V571.674C0 587.318 13.7438 600 30.6977 600H269.302C286.256 600 300 587.318 300 571.674V28.3262C300 12.6821 286.256 0 269.302 0Z" fill="#232323"/>
<path d="M268.605 3.21899H31.3953C15.9827 3.21899 3.48828 14.7481 3.48828 28.9701V566.524C3.48828 580.746 15.9827 592.275 31.3953 592.275H268.605C284.017 592.275 296.512 580.746 296.512 566.524V28.9701C296.512 14.7481 284.017 3.21899 268.605 3.21899Z" fill="#626262"/>
<path d="M213.488 10.9441H86.5117C83.0439 10.9441 80.2327 13.5382 80.2327 16.7381C80.2327 19.938 83.0439 22.5321 86.5117 22.5321H213.488C216.956 22.5321 219.768 19.938 219.768 16.7381C219.768 13.5382 216.956 10.9441 213.488 10.9441Z" fill="#232323"/>
<g clip-path="url(#clip1_272_370)">
<g opacity="0.3" filter="url(#filter0_f_272_370)">
<path d="M141.5 217.18C146.76 214.149 153.24 214.149 158.5 217.18L180.76 230.008C186.02 233.039 189.26 238.641 189.26 244.703V270.359C189.26 276.422 186.02 282.024 180.76 285.055L158.5 297.883C153.24 300.914 146.76 300.914 141.5 297.883L119.24 285.055C113.98 282.024 110.74 276.422 110.74 270.359V244.703C110.74 238.641 113.98 233.039 119.24 230.008L141.5 217.18Z" fill="#F7FC0E"/>
</g>
<g opacity="0.4" filter="url(#filter1_f_272_370)">
<path d="M141.5 231.321C146.76 228.289 153.24 228.289 158.5 231.321L183.214 245.563C188.474 248.594 191.714 254.196 191.714 260.258V288.742C191.714 294.805 188.474 300.407 183.214 303.438L158.5 317.68C153.24 320.711 146.76 320.711 141.5 317.68L116.787 303.438C111.527 300.407 108.287 294.805 108.287 288.742V260.258C108.287 254.196 111.527 248.594 116.787 245.563L141.5 231.321Z" fill="#F7FC0E"/>
</g>
<path d="M141.5 194.555C146.76 191.523 153.24 191.523 158.5 194.555L190.575 213.039C195.835 216.07 199.075 221.672 199.075 227.734V264.703C199.075 270.765 195.835 276.367 190.575 279.398L158.5 297.883C153.24 300.914 146.76 300.914 141.5 297.883L109.425 279.398C104.165 276.367 100.925 270.765 100.925 264.703V227.734C100.925 221.672 104.165 216.07 109.425 213.039L141.5 194.555Z" fill="#F7FC0E"/>
<path d="M134.063 246.709L150.368 219.705V219.718L150.372 219.705L166.674 246.705L166.683 246.709L150.378 256.33L150.372 256.33L150.368 256.326V256.33L134.063 246.709Z" fill="#030303"/>
<path d="M150.368 272.721V272.733L134.062 249.798L150.368 259.413V259.418L150.372 259.413L166.687 249.798L150.372 272.733L150.368 272.721Z" fill="#030303"/>
<path d="M83.944 365C81.196 365 79.162 364.346 77.842 363.038C76.534 361.718 75.88 359.684 75.88 356.936V348.656C75.88 345.884 76.534 343.844 77.842 342.536C79.15 341.216 81.172 340.568 83.908 340.592H88.264C90.52 340.592 92.242 341.06 93.43 341.996C94.618 342.92 95.308 344.384 95.5 346.388C95.572 346.892 95.476 347.276 95.212 347.54C94.948 347.804 94.564 347.936 94.06 347.936C93.148 347.936 92.62 347.432 92.476 346.424C92.356 345.32 91.972 344.576 91.324 344.192C90.688 343.808 89.668 343.616 88.264 343.616H83.908C82.636 343.604 81.634 343.748 80.902 344.048C80.182 344.348 79.666 344.87 79.354 345.614C79.054 346.346 78.904 347.36 78.904 348.656V356.936C78.904 358.22 79.054 359.228 79.354 359.96C79.666 360.692 80.188 361.214 80.92 361.526C81.652 361.826 82.66 361.976 83.944 361.976H88.264C89.668 361.976 90.688 361.784 91.324 361.4C91.972 361.004 92.356 360.26 92.476 359.168C92.62 358.16 93.148 357.656 94.06 357.656C94.564 357.656 94.948 357.788 95.212 358.052C95.476 358.316 95.572 358.7 95.5 359.204C95.308 361.22 94.618 362.69 93.43 363.614C92.242 364.538 90.52 365 88.264 365H83.944ZM106.561 365C104.173 365 102.397 364.424 101.233 363.272C100.081 362.12 99.505 360.356 99.505 357.98V353.804C99.505 351.392 100.081 349.616 101.233 348.476C102.397 347.324 104.173 346.748 106.561 346.748H109.513C111.913 346.748 113.689 347.324 114.841 348.476C115.993 349.628 116.569 351.404 116.569 353.804V357.944C116.569 360.332 115.993 362.108 114.841 363.272C113.689 364.424 111.913 365 109.513 365H106.561ZM102.529 357.98C102.529 359.528 102.811 360.584 103.375 361.148C103.939 361.7 105.001 361.976 106.561 361.976H109.513C111.085 361.976 112.147 361.694 112.699 361.13C113.263 360.566 113.545 359.504 113.545 357.944V353.804C113.545 352.232 113.263 351.17 112.699 350.618C112.147 350.054 111.085 349.772 109.513 349.772H106.561C105.517 349.772 104.701 349.892 104.113 350.132C103.537 350.36 103.129 350.768 102.889 351.356C102.649 351.932 102.529 352.748 102.529 353.804V357.98ZM129.377 365C126.989 365 125.213 364.424 124.049 363.272C122.897 362.108 122.321 360.332 122.321 357.944V353.804C122.321 351.404 122.897 349.628 124.049 348.476C125.213 347.324 126.989 346.748 129.377 346.748H136.361V341.168C136.361 340.16 136.865 339.656 137.873 339.656C138.881 339.656 139.385 340.16 139.385 341.168V363.488C139.385 364.496 138.881 365 137.873 365C136.865 365 136.361 364.496 136.361 363.488V363.236C135.797 363.812 135.059 364.25 134.147 364.55C133.235 364.85 132.101 365 130.745 365H129.377ZM129.377 361.976H130.745C132.329 361.976 133.661 361.772 134.741 361.364C135.821 360.956 136.361 360.332 136.361 359.492V349.772H129.377C127.817 349.772 126.755 350.06 126.191 350.636C125.627 351.2 125.345 352.256 125.345 353.804V357.944C125.345 359.504 125.627 360.566 126.191 361.13C126.767 361.694 127.829 361.976 129.377 361.976ZM148.689 357.116V357.98C148.689 359.528 148.971 360.584 149.535 361.148C150.099 361.7 151.161 361.976 152.721 361.976H155.673C156.897 361.976 157.803 361.862 158.391 361.634C158.979 361.406 159.369 361.004 159.561 360.428C159.693 359.972 159.873 359.624 160.101 359.384C160.341 359.144 160.701 359.024 161.181 359.024C161.685 359.024 162.069 359.156 162.333 359.42C162.597 359.684 162.681 360.068 162.585 360.572C162.321 362.06 161.613 363.17 160.461 363.902C159.309 364.634 157.713 365 155.673 365H152.721C150.333 365 148.557 364.424 147.393 363.272C146.241 362.12 145.665 360.356 145.665 357.98V353.804C145.665 351.368 146.241 349.58 147.393 348.44C148.557 347.288 150.333 346.724 152.721 346.748H155.673C158.073 346.748 159.849 347.324 161.001 348.476C162.153 349.616 162.729 351.392 162.729 353.804V355.604C162.729 356.612 162.225 357.116 161.217 357.116H148.689ZM152.721 349.772C151.161 349.748 150.099 350.018 149.535 350.582C148.971 351.146 148.689 352.22 148.689 353.804V354.092H159.705V353.804C159.705 352.232 159.423 351.17 158.859 350.618C158.307 350.054 157.245 349.772 155.673 349.772H152.721ZM170.858 365C169.85 365 169.346 364.496 169.346 363.488V342.104C169.346 341.096 169.85 340.592 170.858 340.592C171.374 340.592 171.878 340.892 172.37 341.492L186.842 360.14H186.086V342.104C186.086 341.096 186.59 340.592 187.598 340.592C188.606 340.592 189.11 341.096 189.11 342.104V363.488C189.11 364.496 188.606 365 187.598 365C187.058 365 186.554 364.7 186.086 364.1L171.614 345.452H172.37V363.488C172.37 364.496 171.866 365 170.858 365ZM198.104 365C197.096 365 196.592 364.496 196.592 363.488V342.104C196.592 341.096 197.096 340.592 198.104 340.592H211.352C211.82 340.592 212.186 340.73 212.45 341.006C212.726 341.27 212.864 341.636 212.864 342.104C212.864 343.112 212.36 343.616 211.352 343.616H199.616V351.176H206.852C207.86 351.176 208.364 351.68 208.364 352.688C208.364 353.696 207.86 354.2 206.852 354.2H199.616V363.488C199.616 364.496 199.112 365 198.104 365ZM224.255 365C223.751 365 223.373 364.874 223.121 364.622C222.869 364.37 222.743 363.992 222.743 363.488V343.652H215.759C215.255 343.652 214.877 343.526 214.625 343.274C214.373 343.022 214.247 342.644 214.247 342.14C214.247 341.636 214.373 341.258 214.625 341.006C214.877 340.754 215.255 340.628 215.759 340.628H232.751C233.255 340.628 233.633 340.754 233.885 341.006C234.137 341.258 234.263 341.636 234.263 342.14C234.263 342.644 234.137 343.022 233.885 343.274C233.633 343.526 233.255 343.652 232.751 343.652H225.767V363.488C225.767 363.968 225.635 364.34 225.371 364.604C225.119 364.868 224.747 365 224.255 365Z" fill="#F7FC0E"/>
</g>
</g>
<path d="M301 216C301 216.552 300.552 217 300 217V217L300 97V97C300.552 97 301 97.4477 301 98L301 216Z" fill="#232323"/>
<path d="M301 299C301 299.552 300.552 300 300 300V300L300 240V240C300.552 240 301 240.448 301 241L301 299Z" fill="#232323"/>
<defs>
<filter id="filter0_f_272_370" x="104.74" y="208.906" width="90.5195" height="97.2498" filterUnits="userSpaceOnUse" color-interpolation-filters="sRGB">
<feFlood flood-opacity="0" result="BackgroundImageFix"/>
<feBlend mode="normal" in="SourceGraphic" in2="BackgroundImageFix" result="shape"/>
<feGaussianBlur stdDeviation="3" result="effect1_foregroundBlur_272_370"/>
</filter>
<filter id="filter1_f_272_370" x="93.2866" y="214.047" width="113.427" height="120.906" filterUnits="userSpaceOnUse" color-interpolation-filters="sRGB">
<feFlood flood-opacity="0" result="BackgroundImageFix"/>
<feBlend mode="normal" in="SourceGraphic" in2="BackgroundImageFix" result="shape"/>
<feGaussianBlur stdDeviation="7.5" result="effect1_foregroundBlur_272_370"/>
</filter>
<clipPath id="clip0_272_370">
<rect width="300" height="600" fill="white"/>
</clipPath>
<clipPath id="clip1_272_370">
<rect width="170" height="181" fill="white" transform="translate(65 184)"/>
</clipPath>
</defs>
</svg>
