<svg width="301" height="600" viewBox="0 0 301 600" fill="none" xmlns="http://www.w3.org/2000/svg">
<g clip-path="url(#clip0_272_370)">
<path d="M269.302 0H30.6977C13.7438 0 0 12.6821 0 28.3262V571.674C0 587.318 13.7438 600 30.6977 600H269.302C286.256 600 300 587.318 300 571.674V28.3262C300 12.6821 286.256 0 269.302 0Z" fill="#232323"/>
<path d="M268.605 3.21899H31.3953C15.9827 3.21899 3.48828 14.7481 3.48828 28.9701V566.524C3.48828 580.746 15.9827 592.275 31.3953 592.275H268.605C284.017 592.275 296.512 580.746 296.512 566.524V28.9701C296.512 14.7481 284.017 3.21899 268.605 3.21899Z" fill="url(#paint0_linear_272_370)"/>
<path d="M213.488 10.9441H86.5117C83.0439 10.9441 80.2327 13.5382 80.2327 16.7381C80.2327 19.938 83.0439 22.5321 86.5117 22.5321H213.488C216.956 22.5321 219.768 19.938 219.768 16.7381C219.768 13.5382 216.956 10.9441 213.488 10.9441Z" fill="#232323"/>
<path d="M76.7 367.522C75.4137 367.557 74.1397 367.263 72.9988 366.668C71.8578 366.073 70.8876 365.196 70.18 364.122C67.9527 366.205 65.0475 367.412 62 367.522C56.54 367.522 53.58 363.672 54.58 358.152C55.34 354.002 58.74 349.842 59.69 346.502C57.85 345.382 55.12 344.602 53.84 346.892L53 346.382C53.67 343.872 55.29 342.202 57.63 342.202C59.97 342.202 61.7 343.592 63.93 342.312H65.71C64.76 347.312 62.36 351.312 61.08 358.312C60.3 362.602 61.75 364.552 64.2 364.552C66.0168 364.323 67.6843 363.428 68.88 362.042C67.902 359.597 67.4095 356.985 67.43 354.352C67.43 348.272 70.22 341.862 74.9 341.862C77.3 341.862 79.08 343.532 79.08 347.492C79.08 351.452 76.68 357.582 73.62 361.432C73.7853 362.348 74.2653 363.179 74.9773 363.779C75.6893 364.38 76.5886 364.713 77.52 364.722C81.98 364.722 85.1 358.032 85.1 351.842C85.1 345.652 82.42 345.932 82.65 343.842C82.6909 343.316 82.9377 342.828 83.3365 342.483C83.7354 342.139 84.2541 341.966 84.78 342.002C86.17 342.002 88 343.762 88 350.902C88 360.002 83.16 367.522 76.7 367.522ZM75.69 345.002C74.3 345.002 72.96 350.132 72.79 355.432C72.7251 356.565 72.7451 357.701 72.85 358.832C74.9503 355.356 76.2295 351.447 76.59 347.402C76.58 345.602 76.25 345.002 75.69 345.002ZM97.16 367.292C96.5768 367.352 95.9875 367.283 95.4337 367.091C94.8799 366.898 94.3753 366.586 93.9555 366.177C93.5357 365.768 93.211 365.271 93.0044 364.722C92.7978 364.174 92.7144 363.586 92.76 363.002C92.76 360.552 95.94 348.342 95.94 346.332C95.94 345.382 95.72 344.822 94.88 344.822C93.9406 344.976 93.0675 345.404 92.37 346.052V344.322C93.818 342.984 95.6998 342.214 97.67 342.152C98.2567 342.099 98.8479 342.175 99.4022 342.374C99.9566 342.573 100.461 342.891 100.88 343.305C101.299 343.719 101.622 344.22 101.828 344.772C102.033 345.324 102.116 345.914 102.07 346.502C102.07 348.952 98.89 361.112 98.89 363.112C98.89 364.062 99.11 364.622 99.95 364.622C100.877 364.465 101.744 364.06 102.46 363.452V365.122C101.018 366.468 99.1324 367.24 97.16 367.292ZM101.06 332.002C101.496 331.987 101.93 332.069 102.331 332.239C102.732 332.41 103.091 332.666 103.384 332.989C103.676 333.313 103.894 333.697 104.023 334.113C104.152 334.53 104.188 334.969 104.13 335.402C104.024 336.323 103.588 337.175 102.902 337.8C102.216 338.425 101.328 338.781 100.4 338.802C99.9642 338.816 99.5305 338.735 99.1292 338.564C98.7279 338.393 98.3686 338.137 98.0764 337.814C97.7841 337.49 97.566 337.107 97.4371 336.69C97.3082 336.273 97.2716 335.834 97.33 335.402C97.4361 334.48 97.8723 333.628 98.558 333.003C99.2436 332.378 100.132 332.022 101.06 332.002ZM113.44 362.052C113.16 363.562 113.33 364.612 114.39 364.612C115.32 364.466 116.19 364.06 116.9 363.442L117 365.122C115.552 366.459 113.67 367.23 111.7 367.292C108.24 367.292 106.9 364.782 107.41 361.662L110.81 342.312C111.94 335.852 111.55 335.002 108.09 335.002L108.31 333.442L118.74 332.062L113.44 362.052ZM142.77 362.002C142.49 363.512 142.6 364.622 143.72 364.622C144.652 364.444 145.519 364.019 146.23 363.392V365.122C144.792 366.474 142.904 367.247 140.93 367.292C139.932 367.364 138.944 367.061 138.159 366.441C137.374 365.821 136.85 364.929 136.69 363.942C135.854 365.049 134.776 365.95 133.539 366.578C132.302 367.205 130.937 367.542 129.55 367.562C122.92 367.562 120.13 361.712 121.41 354.682C122.69 347.652 128.66 341.912 135.41 341.912C137.008 341.878 138.588 342.254 140 343.002L140.17 342.112C141.49 335.232 140.88 335.002 137.42 335.002L137.59 333.442L148.07 332.062L142.77 362.002ZM135.58 344.432C131.73 344.432 129.17 349.002 128.16 354.632C127.1 360.542 127.77 364.632 131.39 364.632C133.84 364.632 136.63 361.632 137.47 357.052L139.53 345.452C138.342 344.731 136.968 344.376 135.58 344.432ZM160.39 367.572C152.64 367.572 150.52 361.992 151.47 356.642L154 342.312C155.17 335.842 154.78 334.952 151.32 334.952L151.54 333.392L162 332.062L159.88 344.212C161.508 342.796 163.574 341.987 165.73 341.922C172.48 341.922 175.65 347.662 174.43 354.692C173.21 361.722 167 367.572 160.39 367.572ZM164.01 344.572C162.883 344.595 161.793 344.974 160.895 345.655C159.997 346.336 159.337 347.283 159.01 348.362L157.45 357.362C156.5 362.712 158.4 364.892 160.8 364.892C164.31 364.892 166.49 360.992 167.66 354.582C168.7 348.842 167.75 344.602 164 344.602L164.01 344.572ZM185 357.932C185 362.222 187.06 364.512 191 364.512C193 364.512 195.91 363.122 197.75 361.282L198.53 363.062C197.209 364.462 195.62 365.584 193.858 366.36C192.095 367.137 190.195 367.552 188.27 367.582C182.42 367.582 178.46 363.232 178.46 357.322C178.46 348.572 185.71 341.932 192.68 341.932C196.92 341.932 199.31 344.272 199.31 347.002C199.26 351.242 195.24 356.002 185 357.932ZM192.19 344.492C189.01 344.492 185.95 349.122 185.11 355.752C191.52 354.192 194.25 349.842 194.31 347.052C194.3 345.492 193.57 344.492 192.18 344.492H192.19ZM222.06 367.292C221.062 367.364 220.074 367.061 219.289 366.441C218.504 365.821 217.98 364.929 217.82 363.942C217.015 365.048 215.964 365.952 214.748 366.58C213.533 367.208 212.188 367.545 210.82 367.562C204.3 367.562 201.51 361.712 202.82 354.682C204.13 347.652 210 341.922 216.77 341.922C218.206 341.914 219.628 342.2 220.95 342.762H227.31L223.9 362.002C223.62 363.512 223.73 364.622 224.85 364.622C225.782 364.444 226.649 364.019 227.36 363.392V365.122C225.922 366.474 224.034 367.247 222.06 367.292ZM216.93 344.432C213.19 344.432 210.57 349.002 209.57 354.632C208.51 360.542 209.24 364.632 212.57 364.632C215.13 364.632 217.87 361.512 218.65 357.052L220.71 345.452C219.589 344.731 218.272 344.374 216.94 344.432H216.93ZM246.82 348.502C245.31 348.502 244.92 347.332 244.48 346.102C244.332 345.482 243.972 344.933 243.463 344.55C242.954 344.166 242.327 343.972 241.69 344.002C240.863 343.958 240.05 344.225 239.409 344.751C238.769 345.276 238.349 346.022 238.23 346.842C238.06 348.352 239.18 349.632 241.3 351.472L244.14 353.812C245.199 354.614 246.018 355.689 246.51 356.923C247.001 358.157 247.147 359.501 246.93 360.812C246.21 364.992 242.75 367.562 238.12 367.562C232.54 367.562 228.98 364.272 229.37 362.042C229.46 361.455 229.756 360.919 230.205 360.531C230.654 360.143 231.226 359.927 231.82 359.922C233.27 359.922 233.82 361.032 234.27 362.482C234.558 363.314 235.114 364.028 235.85 364.513C236.586 364.998 237.461 365.226 238.34 365.162C239.209 365.202 240.061 364.918 240.731 364.363C241.401 363.808 241.839 363.023 241.96 362.162C242.18 360.162 240.96 358.932 238.67 356.862L235.88 354.412C234.896 353.659 234.13 352.659 233.659 351.514C233.189 350.368 233.03 349.118 233.2 347.892C233.7 345.212 236.2 341.892 241.95 341.892C246.41 341.892 249.2 344.402 248.95 346.412C248.923 346.964 248.688 347.486 248.294 347.873C247.899 348.26 247.373 348.485 246.82 348.502ZM267.23 345.002H261.82L259.2 359.822C258.64 362.892 259.09 364.282 260.76 364.282C261.65 364.282 263.05 363.782 265.05 361.722L265.16 363.892C264.255 364.965 263.129 365.829 261.858 366.427C260.588 367.024 259.204 367.339 257.8 367.352C254.01 367.352 252.11 364.672 253.01 359.712L255.63 345.002H251.4L251.73 342.712H256L257.12 336.082H263.36L262.19 342.712H267.6L267.23 345.002Z" fill="white"/>
<g clip-path="url(#clip1_272_370)">
<path d="M229.521 134.479L201.688 169.271L177.333 179.708L149.5 169.271L121.667 179.708L97.3126 169.271L69.4792 134.479L76.4376 176.229L104.271 204.063L76.4376 214.5L93.8334 231.896L106.358 219.371L111.229 257.642L104.271 259.729L114.708 294.521H132.104L149.5 284.083L166.896 294.521H184.292L194.729 259.729L187.771 257.642L192.642 219.371L205.167 231.896L222.563 214.5L194.729 204.063L222.563 176.229L229.521 134.479Z" fill="white"/>
<path d="M111.229 257.642L149.5 245.813L189.858 258.338L187.771 257.642L192.642 220.763L170.375 193.625L149.5 186.667L128.625 193.625L106.358 220.763L111.229 257.642Z" fill="#B07DFB"/>
<path d="M104.271 259.729L128.625 280.604L149.5 266.688L170.375 280.604L194.729 259.729L184.292 294.521H166.896L149.5 284.083L132.104 294.521H114.708L104.271 259.729Z" fill="#B07DFB"/>
<path d="M111.229 257.642L104.271 204.063L121.667 179.708L149.5 169.271L177.333 179.708L194.729 204.063L187.771 257.642" stroke="#8844EE" stroke-miterlimit="10" stroke-linecap="round" stroke-linejoin="round"/>
<path d="M184.292 294.521H166.896L149.5 284.083L132.104 294.521H114.708L104.271 259.729L149.5 245.812L194.729 259.729L184.292 294.521Z" stroke="#8844EE" stroke-miterlimit="10" stroke-linecap="round" stroke-linejoin="round"/>
<path d="M121.667 179.708L97.3126 169.271L69.4792 134.479L76.4376 176.229L104.271 204.063L76.4376 214.5L93.8334 231.896L106.358 219.371" stroke="#8844EE" stroke-miterlimit="10" stroke-linecap="round" stroke-linejoin="round"/>
<path d="M177.333 179.708L201.688 169.271L229.521 134.479L222.563 176.229L194.729 204.063L222.563 214.5L205.167 231.896L192.642 219.371" stroke="#8844EE" stroke-miterlimit="10" stroke-linecap="round" stroke-linejoin="round"/>
<path d="M132.104 217.979V211.021" stroke="#8844EE" stroke-miterlimit="10" stroke-linecap="round" stroke-linejoin="round"/>
<path d="M139.062 266.688V273.646" stroke="#8844EE" stroke-miterlimit="10" stroke-linecap="round" stroke-linejoin="round"/>
<path d="M166.896 217.979V211.021" stroke="#8844EE" stroke-miterlimit="10" stroke-linecap="round" stroke-linejoin="round"/>
<path d="M159.938 266.688V273.646" stroke="#8844EE" stroke-miterlimit="10" stroke-linecap="round" stroke-linejoin="round"/>
</g>
<rect x="80" y="582" width="140" height="3" rx="1.5" fill="#C7C7C7"/>
</g>
<path d="M301 216C301 216.552 300.552 217 300 217V217L300 97V97C300.552 97 301 97.4477 301 98L301 216Z" fill="#232323"/>
<path d="M301 299C301 299.552 300.552 300 300 300V300L300 240V240C300.552 240 301 240.448 301 241L301 299Z" fill="#232323"/>
<defs>
<linearGradient id="paint0_linear_272_370" x1="297" y1="257" x2="3" y2="257" gradientUnits="userSpaceOnUse">
<stop stop-color="#B07DFB"/>
<stop offset="1" stop-color="#8844EE"/>
</linearGradient>
<clipPath id="clip0_272_370">
<rect width="300" height="600" fill="white"/>
</clipPath>
<clipPath id="clip1_272_370">
<rect width="167" height="167" fill="white" transform="translate(66 131)"/>
</clipPath>
</defs>
</svg>
